<?xml version="1.0" encoding="UTF-8"?>
<svg version="1.1" xmlns="http://www.w3.org/2000/svg" width="250" height="140">
<path d="M0 0 C1.07507813 0.01160156 2.15015625 0.02320312 3.2578125 0.03515625 C4.32773438 0.04417969 5.39765625 0.05320312 6.5 0.0625 C7.92699219 0.07990234 7.92699219 0.07990234 9.3828125 0.09765625 C11.09000464 0.09765625 12.79765133 0.08390469 14.50390625 0.02734375 C15.26832031 0.00929688 16.03273438 -0.00875 16.8203125 -0.02734375 C17.58214844 -0.05054687 18.34398438 -0.07375 19.12890625 -0.09765625 C21.63518735 0.11952582 23.2210331 0.84687728 25.3828125 2.09765625 C26.0428125 1.43765625 26.7028125 0.77765625 27.3828125 0.09765625 C31.36020265 -0.49357742 35.14210884 -0.39862521 38.8828125 1.09765625 C43.60790386 7.39777806 41.49262608 18.99534634 41.4453125 26.59765625 C41.44028783 28.00650883 41.43572663 29.41536314 41.43164062 30.82421875 C41.41991289 34.24871651 41.40197928 37.67319204 41.3828125 41.09765625 C36.7628125 41.09765625 32.1428125 41.09765625 27.3828125 41.09765625 C27.3828125 30.53765625 27.3828125 19.97765625 27.3828125 9.09765625 C26.7228125 9.09765625 26.0628125 9.09765625 25.3828125 9.09765625 C25.3828125 19.65765625 25.3828125 30.21765625 25.3828125 41.09765625 C21.0928125 41.09765625 16.8028125 41.09765625 12.3828125 41.09765625 C12.35775635 40.16381104 12.3327002 39.22996582 12.30688477 38.26782227 C12.21194322 34.81440436 12.11269992 31.36116665 12.01049805 27.90795898 C11.96709437 26.41126356 11.92542337 24.91451686 11.88549805 23.41772461 C11.82792634 21.27051313 11.76419534 19.12356104 11.69921875 16.9765625 C11.66256104 15.68306885 11.62590332 14.3895752 11.58813477 13.05688477 C11.7160847 10.21210617 11.7160847 10.21210617 10.3828125 9.09765625 C10.0528125 19.65765625 9.7228125 30.21765625 9.3828125 41.09765625 C5.0928125 41.09765625 0.8028125 41.09765625 -3.6171875 41.09765625 C-3.64183455 35.41935547 -3.66002212 29.74108556 -3.67211914 24.06274414 C-3.67716006 22.1294704 -3.68399269 20.19620049 -3.69262695 18.26293945 C-3.70470315 15.49038753 -3.71041807 12.71788584 -3.71484375 9.9453125 C-3.72000504 9.07552261 -3.72516632 8.20573273 -3.73048401 7.30958557 C-3.73067935 5.23859811 -3.67926918 3.16771301 -3.6171875 1.09765625 C-2.6171875 0.09765625 -2.6171875 0.09765625 0 0 Z " fill="#1B3A60" transform="translate(100.6171875,66.90234375)"/>
<path d="M0 0 C4.29 0 8.58 0 13 0 C13 1.98 13 3.96 13 6 C13.99 6 14.98 6 16 6 C16 8.64 16 11.28 16 14 C15.01 14 14.02 14 13 14 C13.495 25.88 13.495 25.88 14 38 C14.99 38.33 15.98 38.66 17 39 C17 41.31 17 43.62 17 46 C14.72975032 46.08097324 12.45867925 46.13917704 10.1875 46.1875 C8.29064453 46.23970703 8.29064453 46.23970703 6.35546875 46.29296875 C3 46 3 46 1.30859375 44.89648438 C-0.64406707 42.06658339 -0.33759507 39.76975699 -0.29296875 36.36328125 C-0.28330078 35.06455078 -0.27363281 33.76582031 -0.26367188 32.42773438 C-0.23860585 31.05598361 -0.21321101 29.68423882 -0.1875 28.3125 C-0.1724502 26.92905076 -0.1587623 25.54558599 -0.14648438 24.16210938 C-0.11107223 20.77434793 -0.06168054 17.38736861 0 14 C-0.99 14 -1.98 14 -3 14 C-3 15.98 -3 17.96 -3 20 C-3.969375 20.28875 -4.93875 20.5775 -5.9375 20.875 C-9.10664203 21.64214682 -9.10664203 21.64214682 -10 24 C-10.15222973 25.66565749 -10.24917215 27.33656496 -10.31640625 29.0078125 C-10.35830078 29.99394531 -10.40019531 30.98007813 -10.44335938 31.99609375 C-10.48267578 33.02863281 -10.52199219 34.06117187 -10.5625 35.125 C-10.60568359 36.16527344 -10.64886719 37.20554688 -10.69335938 38.27734375 C-10.79962768 40.8513983 -10.90033527 43.42568131 -11 46 C-15.29 46 -19.58 46 -24 46 C-24.02464705 40.32169922 -24.04283462 34.64342931 -24.05493164 28.96508789 C-24.05997256 27.03181415 -24.06680519 25.09854424 -24.07543945 23.1652832 C-24.08751565 20.39273128 -24.09323057 17.62022959 -24.09765625 14.84765625 C-24.10281754 13.97786636 -24.10797882 13.10807648 -24.11329651 12.21192932 C-24.11349185 10.14094186 -24.06208168 8.07005676 -24 6 C-23 5 -23 5 -20.27734375 4.90234375 C-18.62412109 4.91974609 -18.62412109 4.91974609 -16.9375 4.9375 C-15.28041016 4.95103516 -15.28041016 4.95103516 -13.58984375 4.96484375 C-12.73519531 4.97644531 -11.88054687 4.98804687 -11 5 C-11 5.66 -11 6.32 -11 7 C-10.01 6.34 -9.02 5.68 -8 5 C-5.26009592 5.03143293 -2.71582146 5.55478337 0 6 C0 4.02 0 2.04 0 0 Z " fill="#244266" transform="translate(199,62)"/>
<path d="M0 0 C2.73011387 1.13025122 4.15587548 2.4371634 5.92602539 4.79736328 C5.88791367 9.22555888 3.73257273 11.4456993 0.69615173 14.48042297 C0.11072098 15.04520859 -0.47470978 15.6099942 -1.07788086 16.19189453 C-1.67575912 16.78411301 -2.27363739 17.37633148 -2.88963318 17.98649597 C-4.79604478 19.87056797 -6.71590652 21.74023482 -8.63647461 23.60986328 C-9.93361114 24.88693182 -11.22984623 26.16491667 -12.52514648 27.44384766 C-15.69618194 30.57425485 -18.88502563 33.68479631 -22.07397461 36.79736328 C-13.82397461 37.12736328 -5.57397461 37.45736328 2.92602539 37.79736328 C1.72028271 42.62033402 0.05391091 45.04276237 -4.07397461 47.79736328 C-7.06867226 48.57410359 -9.89508547 48.50238787 -12.97241211 48.38330078 C-14.22485214 48.37056625 -14.22485214 48.37056625 -15.50259399 48.35757446 C-18.15273606 48.32415719 -20.79976263 48.24890784 -23.44897461 48.17236328 C-25.25231588 48.14224823 -27.05570515 48.11487511 -28.85913086 48.09033203 C-33.26526747 48.02440519 -37.66909407 47.92097124 -42.07397461 47.79736328 C-42.27288303 42.6747064 -42.41742436 37.55433115 -42.51342773 32.42871094 C-42.55347192 30.68840349 -42.60792825 28.94836204 -42.67749023 27.20898438 C-43.2382016 12.82014123 -43.2382016 12.82014123 -40.36303711 7.82470703 C-38.35165903 5.73596825 -36.62879354 4.1622328 -34.07397461 2.79736328 C-33.08397461 2.79736328 -32.09397461 2.79736328 -31.07397461 2.79736328 C-30.74397461 11.04736328 -30.41397461 19.29736328 -30.07397461 27.79736328 C-27.43397461 25.15736328 -24.79397461 22.51736328 -22.07397461 19.79736328 C-21.23995117 18.96978516 -20.40592773 18.14220703 -19.54663086 17.28955078 C-17.48627087 15.21291622 -15.46237497 13.11077019 -13.44506836 10.99267578 C-12.13409884 9.63568426 -10.82289647 8.27891766 -9.51147461 6.92236328 C-8.85211914 6.22111328 -8.19276367 5.51986328 -7.51342773 4.79736328 C-6.87211914 4.13994141 -6.23081055 3.48251953 -5.57006836 2.80517578 C-4.7065979 1.9024292 -4.7065979 1.9024292 -3.82568359 0.98144531 C-2.07397461 -0.20263672 -2.07397461 -0.20263672 0 0 Z " fill="#F3A350" transform="translate(106.073974609375,7.20263671875)"/>
<path d="M0 0 C0.81276398 0.00848969 1.62552795 0.01697937 2.46292114 0.02572632 C5.04177228 0.0591349 7.61741775 0.13438067 10.1953125 0.2109375 C11.95047545 0.24105376 13.70568776 0.26842667 15.4609375 0.29296875 C19.7486183 0.35888376 24.03392325 0.46230994 28.3203125 0.5859375 C28.49435919 5.70864791 28.62084153 10.82961027 28.70483398 15.95458984 C28.73987077 17.69480392 28.78751759 19.43481438 28.84838867 21.17431641 C29.40483192 37.49353449 29.40483192 37.49353449 24.98046875 42.7734375 C22.45556902 45.13351785 21.85995192 45.5859375 18.3203125 45.5859375 C17.8253125 33.2109375 17.8253125 33.2109375 17.3203125 20.5859375 C13.78470992 24.20063314 13.78470992 24.20063314 10.26025391 27.82617188 C8.98385626 29.11700525 7.6529989 30.35330263 6.3203125 31.5859375 C5.6603125 31.5859375 5.0003125 31.5859375 4.3203125 31.5859375 C4.0521875 32.2253125 3.7840625 32.8646875 3.5078125 33.5234375 C2.3203125 35.5859375 2.3203125 35.5859375 -0.6796875 36.5859375 C-1.37598815 37.9040375 -2.03794705 39.24042964 -2.6796875 40.5859375 C-4.44921875 42.7265625 -4.44921875 42.7265625 -6.4921875 44.8359375 C-7.15863281 45.54234375 -7.82507813 46.24875 -8.51171875 46.9765625 C-11.11528498 48.90929995 -12.51068466 48.91777026 -15.6796875 48.5859375 C-15.6796875 47.9259375 -15.6796875 47.2659375 -15.6796875 46.5859375 C-16.3396875 46.5859375 -16.9996875 46.5859375 -17.6796875 46.5859375 C-17.6796875 45.9259375 -17.6796875 45.2659375 -17.6796875 44.5859375 C-18.3396875 44.5859375 -18.9996875 44.5859375 -19.6796875 44.5859375 C-19.36701329 39.32187439 -16.2686314 36.65755499 -12.67578125 33.19140625 C-12.07790298 32.59918777 -11.48002472 32.0069693 -10.86402893 31.39680481 C-8.95761733 29.51273281 -7.03775559 27.64306596 -5.1171875 25.7734375 C-3.82005097 24.49636896 -2.52381588 23.21838411 -1.22851562 21.93945312 C1.94251983 18.80904593 5.13136352 15.69850447 8.3203125 12.5859375 C0.4003125 12.2559375 -7.5196875 11.9259375 -15.6796875 11.5859375 C-14.66059269 6.49046346 -14.09235265 5.10342739 -10.51702881 1.78582764 C-7.17464492 -0.39694235 -3.87940494 -0.15434499 0 0 Z " fill="#F1902B" transform="translate(32.6796875,57.4140625)"/>
<path d="M0 0 C4.29067546 1.65236651 7.1429553 4.8905207 10.296875 8.1015625 C10.89050842 8.69802582 11.48414185 9.29448914 12.09576416 9.9090271 C13.98526627 11.8096981 15.86768392 13.71721474 17.75 15.625 C19.03209065 16.91712468 20.31463761 18.20879676 21.59765625 19.5 C24.7379733 22.66062958 27.86861134 25.83042368 31 29 C31.33 20.75 31.66 12.5 32 4 C32.99 4 33.98 4 35 4 C35 4.66 35 5.32 35 6 C35.66 6 36.32 6 37 6 C37 6.66 37 7.32 37 8 C37.66 8 38.32 8 39 8 C39 8.66 39 9.32 39 10 C39.99 10.33 40.98 10.66 42 11 C42 23.21 42 35.42 42 48 C36.039375 48.165 30.07875 48.33 23.9375 48.5 C21.13560181 48.60924805 21.13560181 48.60924805 18.27709961 48.72070312 C6.54971941 48.98555871 6.54971941 48.98555871 2.25439453 46.25390625 C-2 41.51179453 -2 41.51179453 -2 38 C10.375 37.505 10.375 37.505 23 37 C13.43 27.43 3.86 17.86 -6 8 C-4.21844267 4.43688534 -2.83236991 2.64354525 0 0 Z " fill="#EF8211" transform="translate(19,7)"/>
<path d="M0 0 C5.2132897 1.76721685 5.2132897 1.76721685 7.13671875 4.78125 C8.68536454 8.76147991 8.11119709 12.77451076 8 17 C4.37 17.33 0.74 17.66 -3 18 C-1.576875 19.051875 -0.15375 20.10375 1.3125 21.1875 C4.82508704 23.78375999 7.17297398 25.99214292 9 30 C9.3984375 33.375 9.3984375 33.375 9.375 37 C9.38273437 38.19625 9.39046875 39.3925 9.3984375 40.625 C8.96459645 44.29988892 8.33454593 46.14553337 6 49 C0.50843421 52.09251999 -5.89739643 51.62225565 -12 51 C-14.96673812 50.00619169 -16.50408183 48.98538945 -19 47 C-20.09506492 43.71480525 -20.09960608 41.26336585 -20.0625 37.8125 C-20.05347656 36.72582031 -20.04445313 35.63914063 -20.03515625 34.51953125 C-20.02355469 33.68808594 -20.01195313 32.85664062 -20 32 C-16.7 31.67 -13.4 31.34 -10 31 C-10.93972656 30.32904297 -10.93972656 30.32904297 -11.8984375 29.64453125 C-12.71570313 29.03996094 -13.53296875 28.43539062 -14.375 27.8125 C-15.18710938 27.22082031 -15.99921875 26.62914063 -16.8359375 26.01953125 C-19.98013994 23.08532067 -20.83340607 20.50583601 -21.30078125 16.28125 C-21.3412071 6.68684921 -21.3412071 6.68684921 -18 3 C-12.33708216 -1.10211363 -6.73983557 -0.62656763 0 0 Z M-7 9 C-8.26472065 10.05429686 -8.26472065 10.05429686 -8.25 12.4375 C-8.1675 13.283125 -8.085 14.12875 -8 15 C-6.515 15.99 -6.515 15.99 -5 17 C-5 14.69 -5 12.38 -5 10 C-5.66 9.67 -6.32 9.34 -7 9 Z M-8 32 C-8.04125 33.27875 -8.0825 34.5575 -8.125 35.875 C-8.14820312 36.59429687 -8.17140625 37.31359375 -8.1953125 38.0546875 C-8.18331689 40.23863645 -8.18331689 40.23863645 -6 42 C-5.34 41.34 -4.68 40.68 -4 40 C-4.08885 36.96655046 -4.08885 36.96655046 -5 34 C-5.99 33.34 -6.98 32.68 -8 32 Z " fill="#274468" transform="translate(86,58)"/>
<path d="M0 0 C1.010625 -0.00773437 2.02125 -0.01546875 3.0625 -0.0234375 C7.19104805 0.53655173 9.69554632 2.07661719 12.6262207 4.99365234 C14.55589397 8.33860223 14.3732805 11.45273623 14.29296875 15.203125 C14.28872391 15.95213074 14.28447906 16.70113647 14.28010559 17.47283936 C14.26335746 19.85726375 14.22571397 22.24083253 14.1875 24.625 C14.17244809 26.24477943 14.15876057 27.86457215 14.14648438 29.484375 C14.1134668 33.44824466 14.06171246 37.41147743 14 41.375 C10.27315284 41.68889161 6.54452139 41.94347461 2.8125 42.1875 C1.75740234 42.27708984 0.70230469 42.36667969 -0.38476562 42.45898438 C-8.15289946 42.9245823 -8.15289946 42.9245823 -12.203125 40.296875 C-14.32550216 36.84570518 -14.64190653 34.84354923 -14.5625 30.8125 C-14.56443359 29.13994141 -14.56443359 29.13994141 -14.56640625 27.43359375 C-13.89263643 23.7952367 -12.85544463 22.64770082 -10 20.375 C-7.75 19.125 -7.75 19.125 -6 18.375 C-8.64 18.045 -11.28 17.715 -14 17.375 C-14.57685009 7.56854839 -14.57685009 7.56854839 -11 3.375 C-7.24195042 0.67287709 -4.60935901 -0.03527571 0 0 Z M-1 8.375 C-2.41577477 9.55924326 -2.41577477 9.55924326 -2.0625 12.9375 C-2.041875 14.071875 -2.02125 15.20625 -2 16.375 C-1.01 16.045 -0.02 15.715 1 15.375 C1 13.395 1 11.415 1 9.375 C0.34 9.045 -0.32 8.715 -1 8.375 Z M0 23.375 C-2.09350689 26.7769487 -2.17942163 29.42772412 -2 33.375 C-1.01 33.705 -0.02 34.035 1 34.375 C1 30.745 1 27.115 1 23.375 C0.67 23.375 0.34 23.375 0 23.375 Z " fill="#04254F" transform="translate(158,66.625)"/>
<path d="M0 0 C4.29 0 8.58 0 13 0 C13 1.98 13 3.96 13 6 C13.99 6 14.98 6 16 6 C16 8.64 16 11.28 16 14 C15.01 14 14.02 14 13 14 C13.33 21.92 13.66 29.84 14 38 C15.485 38.495 15.485 38.495 17 39 C17 41.31 17 43.62 17 46 C14.72975032 46.08097324 12.45867925 46.13917704 10.1875 46.1875 C8.29064453 46.23970703 8.29064453 46.23970703 6.35546875 46.29296875 C3 46 3 46 1.30859375 44.89648438 C-0.64406707 42.06658339 -0.33759507 39.76975699 -0.29296875 36.36328125 C-0.2784668 34.41518555 -0.2784668 34.41518555 -0.26367188 32.42773438 C-0.23860585 31.05598361 -0.21321101 29.68423882 -0.1875 28.3125 C-0.1724502 26.92905076 -0.1587623 25.54558599 -0.14648438 24.16210938 C-0.11107223 20.77434793 -0.06168054 17.38736861 0 14 C-0.66 14 -1.32 14 -2 14 C-2 11.69 -2 9.38 -2 7 C-1.34 7 -0.68 7 0 7 C0 4.69 0 2.38 0 0 Z " fill="#1C3B61" transform="translate(199,62)"/>
<path d="M0 0 C0 8.91 0 17.82 0 27 C1.32 27.33 2.64 27.66 4 28 C4.99 28.33 5.98 28.66 7 29 C7 30.98 7 32.96 7 35 C15.91 35 24.82 35 34 35 C28 42 28 42 27 43 C24.3337397 43.08855161 21.69352886 43.11524673 19.02734375 43.09765625 C18.22970108 43.0962413 17.43205841 43.09482635 16.61024475 43.09336853 C14.05262565 43.08775316 11.49509282 43.07519812 8.9375 43.0625 C7.20768355 43.05748698 5.47786574 43.05292373 3.74804688 43.04882812 C-0.50133553 43.03777875 -4.75065312 43.02050386 -9 43 C-9.174148 38.1621304 -9.30057219 33.32611654 -9.38452148 28.48583984 C-9.41954214 26.84261262 -9.46717701 25.19960066 -9.52807617 23.55712891 C-10.08461157 8.1518549 -10.08461157 8.1518549 -5.59765625 2.875 C-2.51222222 0 -2.51222222 0 0 0 Z " fill="#EF7B02" transform="translate(74,11)"/>
<path d="M0 0 C4.29067546 1.65236651 7.1429553 4.8905207 10.296875 8.1015625 C10.89050842 8.69802582 11.48414185 9.29448914 12.09576416 9.9090271 C13.98526627 11.8096981 15.86768392 13.71721474 17.75 15.625 C19.03209065 16.91712468 20.31463761 18.20879676 21.59765625 19.5 C24.7379733 22.66062958 27.86861134 25.83042368 31 29 C31.33 20.75 31.66 12.5 32 4 C32.99 4 33.98 4 35 4 C35 4.66 35 5.32 35 6 C35.66 6 36.32 6 37 6 C36.67 6.66 36.34 7.32 36 8 C35.01 7.67 34.02 7.34 33 7 C33 15.25 33 23.5 33 32 C31.02 31.67 29.04 31.34 27 31 C26.67 33.64 26.34 36.28 26 39 C25.28344238 39.01458252 24.56688477 39.02916504 23.82861328 39.04418945 C20.59352017 39.11849 17.35947981 39.21520861 14.125 39.3125 C12.43310547 39.34633789 12.43310547 39.34633789 10.70703125 39.38085938 C9.63066406 39.41630859 8.55429687 39.45175781 7.4453125 39.48828125 C5.95281982 39.52755737 5.95281982 39.52755737 4.43017578 39.56762695 C3.22723877 39.78165161 3.22723877 39.78165161 2 40 C1.34 40.99 0.68 41.98 0 43 C-0.66 41.35 -1.32 39.7 -2 38 C10.375 37.505 10.375 37.505 23 37 C13.43 27.43 3.86 17.86 -6 8 C-4.21844267 4.43688534 -2.83236991 2.64354525 0 0 Z " fill="#F18B22" transform="translate(19,7)"/>
<path d="M0 0 C1.258125 -0.04125 2.51625 -0.0825 3.8125 -0.125 C4.52019531 -0.14820312 5.22789063 -0.17140625 5.95703125 -0.1953125 C8 0 8 0 11 2 C11 2.99 11 3.98 11 5 C11.66 5.66 12.32 6.32 13 7 C12.01 7 11.02 7 10 7 C10 17.56 10 28.12 10 39 C6.37 39 2.74 39 -1 39 C-1.01981934 38.08186523 -1.03963867 37.16373047 -1.06005859 36.21777344 C-1.13826955 32.80328175 -1.22496584 29.38922298 -1.31738281 25.97509766 C-1.35560666 24.49894464 -1.39047103 23.02270057 -1.421875 21.54638672 C-1.46766986 19.42121906 -1.52563837 17.29667458 -1.5859375 15.171875 C-1.6173584 13.8940918 -1.6487793 12.61630859 -1.68115234 11.29980469 C-1.97346385 8.27462676 -2.40581489 6.53950891 -4 4 C-2.68 3.34 -1.36 2.68 0 2 C0 1.34 0 0.68 0 0 Z " fill="#032650" transform="translate(115,68)"/>
<path d="M0 0 C3.63 0 7.26 0 11 0 C11 12.87 11 25.74 11 39 C7.37 39 3.74 39 0 39 C0 26.13 0 13.26 0 0 Z " fill="#01244E" transform="translate(98,68)"/>
<path d="M0 0 C0.33 0 0.66 0 1 0 C1 11.22 1 22.44 1 34 C-2.691875 34.268125 -6.38375 34.53625 -10.1875 34.8125 C-11.3427417 34.91022705 -12.4979834 35.0079541 -13.68823242 35.10864258 C-21.16822443 35.53963976 -21.16822443 35.53963976 -25.203125 32.921875 C-27.32550216 29.47070518 -27.64190653 27.46854923 -27.5625 23.4375 C-27.56443359 21.76494141 -27.56443359 21.76494141 -27.56640625 20.05859375 C-26.89263643 16.4202367 -25.85544463 15.27270082 -23 13 C-20.75 11.75 -20.75 11.75 -19 11 C-21.64 10.67 -24.28 10.34 -27 10 C-27 7.03 -27 4.06 -27 1 C-26.67 1 -26.34 1 -26 1 C-26 3.64 -26 6.28 -26 9 C-22.7 9 -19.4 9 -16 9 C-16 6.69 -16 4.38 -16 2 C-15.67 2 -15.34 2 -15 2 C-15 4.31 -15 6.62 -15 9 C-14.34 8.67 -13.68 8.34 -13 8 C-12.34227572 4.97065509 -12.34227572 4.97065509 -12 2 C-11.67 2 -11.34 2 -11 2 C-10.14531686 6.74823968 -10.19976117 10.28748243 -11 15 C-11 18.13347687 -10.93722973 21.258692 -10.83984375 24.390625 C-11 27 -11 27 -13 29 C-11.68 29.66 -10.36 30.32 -9 31 C-9 31.33 -9 31.66 -9 32 C-6.03 32.33 -3.06 32.66 0 33 C0 22.11 0 11.22 0 0 Z M-13 16 C-15.09350689 19.4019487 -15.17942163 22.05272412 -15 26 C-14.01 26.33 -13.02 26.66 -12 27 C-12 23.37 -12 19.74 -12 16 C-12.33 16 -12.66 16 -13 16 Z " fill="#2C486B" transform="translate(171,74)"/>
<path d="M0 0 C6.93 0 13.86 0 21 0 C21 5.28 21 10.56 21 16 C22.65 16 24.3 16 26 16 C26 17.65 26 19.3 26 21 C21.71 21 17.42 21 13 21 C13 15.72 13 10.44 13 5 C11.02 5 9.04 5 7 5 C7 6.32 7 7.64 7 9 C8.32 9 9.64 9 11 9 C11 10.65 11 12.3 11 14 C9.68 14 8.36 14 7 14 C7 16.31 7 18.62 7 21 C4.69 21 2.38 21 0 21 C0 14.07 0 7.14 0 0 Z " fill="#02254F" transform="translate(76,113)"/>
<path d="M0 0 C2.31 0 4.62 0 7 0 C7 2.64 7 5.28 7 8 C7.66 8 8.32 8 9 8 C9 5.36 9 2.72 9 0 C11.64 0 14.28 0 17 0 C17 6.93 17 13.86 17 21 C14.36 21 11.72 21 9 21 C9 18.36 9 15.72 9 13 C8.34 13 7.68 13 7 13 C7 15.64 7 18.28 7 21 C4.69 21 2.38 21 0 21 C0 14.07 0 7.14 0 0 Z " fill="#02254F" transform="translate(195,113)"/>
<path d="M0 0 C11.48943149 -0.37062682 11.48943149 -0.37062682 13.82421875 1.32421875 C16.69662594 5.41811471 16.49611853 10.20699051 16 15 C14.8410416 17.41869578 13.87677904 19.12322096 12 21 C7.99779347 21.14355117 4.00558317 21.04216403 0 21 C0 14.07 0 7.14 0 0 Z M8 8 C8 9.65 8 11.3 8 13 C8.33 13 8.66 13 9 13 C9 11.35 9 9.7 9 8 C8.67 8 8.34 8 8 8 Z " fill="#02254F" transform="translate(128,113)"/>
<path d="M0 0 C4.95 0 9.9 0 15 0 C15.43858327 14.18085908 15.43858327 14.18085908 12 20 C9.12529507 21.43735246 7.18105412 21.38172649 4 21 C1.7195909 18.90349486 0.20192739 17.21404577 -0.31787109 14.08886719 C-0.39308734 11.94141802 -0.34973846 9.83379498 -0.25 7.6875 C-0.23195313 6.94693359 -0.21390625 6.20636719 -0.1953125 5.44335938 C-0.14847337 3.6283429 -0.07673789 1.81399834 0 0 Z " fill="#02254F" transform="translate(103,113)"/>
<path d="M0 0 C1.07507813 0.01160156 2.15015625 0.02320312 3.2578125 0.03515625 C4.32773438 0.04417969 5.39765625 0.05320312 6.5 0.0625 C7.92699219 0.07990234 7.92699219 0.07990234 9.3828125 0.09765625 C10.3728125 0.09765625 11.3628125 0.09765625 12.3828125 0.09765625 C15.3828125 0.09765625 18.3828125 0.09765625 21.3828125 0.09765625 C21.3828125 0.42765625 21.3828125 0.75765625 21.3828125 1.09765625 C19.0728125 1.09765625 16.7628125 1.09765625 14.3828125 1.09765625 C14.3828125 1.75765625 14.3828125 2.41765625 14.3828125 3.09765625 C12.8828125 4.72265625 12.8828125 4.72265625 11.3828125 6.09765625 C12.3728125 7.58265625 12.3728125 7.58265625 13.3828125 9.09765625 C13.60986328 12.28393555 13.60986328 12.28393555 13.578125 16.171875 C13.5752951 16.85570755 13.57246521 17.5395401 13.56954956 18.24409485 C13.55836934 20.4246279 13.53326941 22.6047477 13.5078125 24.78515625 C13.49777988 26.26496802 13.48865452 27.74478624 13.48046875 29.22460938 C13.45843731 32.84909225 13.42392252 36.47333391 13.3828125 40.09765625 C17.0128125 40.09765625 20.6428125 40.09765625 24.3828125 40.09765625 C24.3828125 29.53765625 24.3828125 18.97765625 24.3828125 8.09765625 C25.7028125 8.09765625 27.0228125 8.09765625 28.3828125 8.09765625 C28.3828125 18.98765625 28.3828125 29.87765625 28.3828125 41.09765625 C28.0528125 41.09765625 27.7228125 41.09765625 27.3828125 41.09765625 C27.3828125 30.53765625 27.3828125 19.97765625 27.3828125 9.09765625 C26.7228125 9.09765625 26.0628125 9.09765625 25.3828125 9.09765625 C25.3828125 19.65765625 25.3828125 30.21765625 25.3828125 41.09765625 C21.0928125 41.09765625 16.8028125 41.09765625 12.3828125 41.09765625 C12.35775635 40.16381104 12.3327002 39.22996582 12.30688477 38.26782227 C12.21194322 34.81440436 12.11269992 31.36116665 12.01049805 27.90795898 C11.96709437 26.41126356 11.92542337 24.91451686 11.88549805 23.41772461 C11.82792634 21.27051313 11.76419534 19.12356104 11.69921875 16.9765625 C11.66256104 15.68306885 11.62590332 14.3895752 11.58813477 13.05688477 C11.7160847 10.21210617 11.7160847 10.21210617 10.3828125 9.09765625 C10.0528125 19.65765625 9.7228125 30.21765625 9.3828125 41.09765625 C5.0928125 41.09765625 0.8028125 41.09765625 -3.6171875 41.09765625 C-3.64183455 35.41935547 -3.66002212 29.74108556 -3.67211914 24.06274414 C-3.67716006 22.1294704 -3.68399269 20.19620049 -3.69262695 18.26293945 C-3.70470315 15.49038753 -3.71041807 12.71788584 -3.71484375 9.9453125 C-3.72000504 9.07552261 -3.72516632 8.20573273 -3.73048401 7.30958557 C-3.73067935 5.23859811 -3.67926918 3.16771301 -3.6171875 1.09765625 C-2.6171875 0.09765625 -2.6171875 0.09765625 0 0 Z M-2.6171875 1.09765625 C-2.6171875 13.96765625 -2.6171875 26.83765625 -2.6171875 40.09765625 C1.0128125 40.09765625 4.6428125 40.09765625 8.3828125 40.09765625 C8.3828125 27.22765625 8.3828125 14.35765625 8.3828125 1.09765625 C4.7528125 1.09765625 1.1228125 1.09765625 -2.6171875 1.09765625 Z " fill="#9CAABA" transform="translate(100.6171875,66.90234375)"/>
<path d="M0 0 C4.29 0 8.58 0 13 0 C13 1.65 13 3.3 13 5 C11.35 5 9.7 5 8 5 C8 5.99 8 6.98 8 8 C8.99 8 9.98 8 11 8 C11 9.65 11 11.3 11 13 C10.01 13 9.02 13 8 13 C8 13.99 8 14.98 8 16 C9.65 16 11.3 16 13 16 C13 17.65 13 19.3 13 21 C8.71 21 4.42 21 0 21 C0 14.07 0 7.14 0 0 Z " fill="#02254F" transform="translate(166,113)"/>
<path d="M0 0 C0.66 0.33 1.32 0.66 2 1 C1.34 3.31 0.68 5.62 0 8 C-1.32 8 -2.64 8 -4 8 C-4 9.65 -4 11.3 -4 13 C-2.68 13 -1.36 13 0 13 C0.66 15.31 1.32 17.62 2 20 C-1.22816959 21.61408479 -4.50930484 21.57258438 -8 21 C-10.5 19.1875 -10.5 19.1875 -12 16 C-12.74034562 10.8561403 -12.72985004 6.55093132 -10.5 1.8125 C-6.81961462 -0.8557794 -4.48880047 -0.43440005 0 0 Z " fill="#02254F" transform="translate(192,113)"/>
<path d="M0 0 C4.29 0 8.58 0 13 0 C13 2.64 13 5.28 13 8 C12.01 8 11.02 8 10 8 C10 12.29 10 16.58 10 21 C7.69 21 5.38 21 3 21 C3 16.71 3 12.42 3 8 C2.01 8 1.02 8 0 8 C0 5.36 0 2.72 0 0 Z " fill="#02254F" transform="translate(152,113)"/>
<path d="M0 0 C1.15113281 -0.02578125 2.30226563 -0.0515625 3.48828125 -0.078125 C6.99080675 0.28110838 8.40270781 0.57416759 10.6875 3.25 C11.078125 6.16796875 11.078125 6.16796875 10.9375 9.4375 C10.90140625 10.52417969 10.8653125 11.61085938 10.828125 12.73046875 C10.75851563 13.97763672 10.75851563 13.97763672 10.6875 15.25 C7.0575 15.25 3.4275 15.25 -0.3125 15.25 C-0.43625 14.115625 -0.56 12.98125 -0.6875 11.8125 C-0.89375 10.636875 -1.1 9.46125 -1.3125 8.25 C-1.9725 7.92 -2.6325 7.59 -3.3125 7.25 C-3.3125 5.93 -3.3125 4.61 -3.3125 3.25 C-3.9725 3.25 -4.6325 3.25 -5.3125 3.25 C-5.6425 3.91 -5.9725 4.57 -6.3125 5.25 C-6.875 3.3125 -6.875 3.3125 -7.3125 1.25 C-5.45145086 -0.61104914 -2.49213923 0.03326548 0 0 Z " fill="#0E2E56" transform="translate(82.3125,58.75)"/>
<path d="M0 0 C2.64 0 5.28 0 8 0 C8 6.93 8 13.86 8 21 C5.36 21 2.72 21 0 21 C0 14.07 0 7.14 0 0 Z " fill="#02254F" transform="translate(119,113)"/>
<path d="M0 0 C0.99 0 1.98 0 3 0 C2.34 2.64 1.68 5.28 1 8 C-1.64 8 -4.28 8 -7 8 C-6.02133662 6.85373678 -5.04205413 5.70800212 -4.0625 4.5625 C-3.51722656 3.92441406 -2.97195312 3.28632812 -2.41015625 2.62890625 C-1.63204305 1.73008851 -0.84063472 0.84063472 0 0 Z " fill="#EE7902" transform="translate(25,59)"/>
<path d="M0 0 C0.99 0 1.98 0 3 0 C3 0.66 3 1.32 3 2 C3.66 2 4.32 2 5 2 C4.67 2.66 4.34 3.32 4 4 C3.01 3.67 2.02 3.34 1 3 C1 11.25 1 19.5 1 28 C0.01 27.67 -0.98 27.34 -2 27 C-1.67 26.34 -1.34 25.68 -1 25 C-0.84655791 23.11527141 -0.75040429 21.22572126 -0.68359375 19.3359375 C-0.62075195 17.65371094 -0.62075195 17.65371094 -0.55664062 15.9375 C-0.51732422 14.761875 -0.47800781 13.58625 -0.4375 12.375 C-0.39431641 11.19164062 -0.35113281 10.00828125 -0.30664062 8.7890625 C-0.20032574 5.85949672 -0.09829358 2.92984412 0 0 Z " fill="#F3A24F" transform="translate(51,11)"/>
<path d="M0 0 C0.99 0.33 1.98 0.66 3 1 C3 1.66 3 2.32 3 3 C2.28344238 3.01458252 1.56688477 3.02916504 0.82861328 3.04418945 C-2.40647983 3.11849 -5.64052019 3.21520861 -8.875 3.3125 C-10.00292969 3.33505859 -11.13085938 3.35761719 -12.29296875 3.38085938 C-13.36933594 3.41630859 -14.44570313 3.45175781 -15.5546875 3.48828125 C-17.04718018 3.52755737 -17.04718018 3.52755737 -18.56982422 3.56762695 C-19.37178223 3.71031006 -20.17374023 3.85299316 -21 4 C-21.99 5.485 -21.99 5.485 -23 7 C-23.66 5.35 -24.32 3.7 -25 2 C-12.625 1.505 -12.625 1.505 0 1 C0 0.67 0 0.34 0 0 Z " fill="#F4A451" transform="translate(42,43)"/>
<path d="M0 0 C1.60294922 0.04060547 1.60294922 0.04060547 3.23828125 0.08203125 C4.04652344 0.11683594 4.85476562 0.15164062 5.6875 0.1875 C5.6875 0.5175 5.6875 0.8475 5.6875 1.1875 C2.3875 1.1875 -0.9125 1.1875 -4.3125 1.1875 C-4.6425 2.1775 -4.9725 3.1675 -5.3125 4.1875 C-7.86420871 5.7713192 -10.38856119 6.56094168 -13.3125 7.1875 C-10.94208896 0.93823453 -6.24971101 -0.20603443 0 0 Z " fill="#5E728D" transform="translate(158.3125,66.8125)"/>
<path d="M0 0 C0.33 0 0.66 0 1 0 C1 2.64 1 5.28 1 8 C4.3 8 7.6 8 11 8 C11 5.69 11 3.38 11 1 C11.33 1 11.66 1 12 1 C12 3.31 12 5.62 12 8 C12.99 7.67 13.98 7.34 15 7 C15 7.66 15 8.32 15 9 C11.58860997 10.09651823 8.79344419 9.94215473 5.25 9.5625 C4.26515625 9.46066406 3.2803125 9.35882813 2.265625 9.25390625 C1.51796875 9.17011719 0.7703125 9.08632812 0 9 C0 6.03 0 3.06 0 0 Z " fill="#8797AB" transform="translate(144,75)"/>
<path d="M0 0 C-1.33333333 2.66666667 -2.66666667 5.33333333 -4 8 C-6.50037734 5.82575883 -7.43628586 4.26954202 -8 1 C-5.29120665 -0.35439668 -2.99066732 -0.06501451 0 0 Z " fill="#F08921" transform="translate(27,46)"/>
<path d="M0 0 C0.33 0.66 0.66 1.32 1 2 C0.01 3.485 0.01 3.485 -1 5 C-1.66 5 -2.32 5 -3 5 C-3.33 5.99 -3.66 6.98 -4 8 C-4.66 8 -5.32 8 -6 8 C-4.55746343 4.63408134 -2.66735273 2.48952921 0 0 Z " fill="#F6BA7D" transform="translate(83,28)"/>
<path d="M0 0 C1.32 0.66 2.64 1.32 4 2 C3.01 2.33 2.02 2.66 1 3 C-0.35622245 3.96873032 -1.69417053 4.96434215 -3 6 C-3.66 5.67 -4.32 5.34 -5 5 C-3.35 3.35 -1.7 1.7 0 0 Z " fill="#F4A353" transform="translate(19,7)"/>
</svg>
